<mxfile host="Electron" modified="2024-10-29T12:55:04.545Z" agent="Mozilla/5.0 (Windows NT 10.0; Win64; x64) AppleWebKit/537.36 (KHTML, like Gecko) draw.io/21.7.5 Chrome/114.0.5735.289 Electron/25.8.1 Safari/537.36" etag="Hjd3okzazleQSSO5xGfZ" version="21.7.5" type="device">
  <diagram name="Página-1" id="ywVVEtQK6HPwL4mSwM6g">
    <mxGraphModel dx="525" dy="473" grid="1" gridSize="10" guides="1" tooltips="1" connect="1" arrows="1" fold="1" page="1" pageScale="1" pageWidth="1169" pageHeight="827" math="0" shadow="0">
      <root>
        <mxCell id="0" />
        <mxCell id="1" parent="0" />
        <mxCell id="ygGclzWGD8yxMTeT2dYh-1" value="Producto" style="rounded=0;whiteSpace=wrap;html=1;" vertex="1" parent="1">
          <mxGeometry x="50" y="384" width="120" height="60" as="geometry" />
        </mxCell>
        <mxCell id="ygGclzWGD8yxMTeT2dYh-2" value="CD" style="rounded=0;whiteSpace=wrap;html=1;" vertex="1" parent="1">
          <mxGeometry x="310" y="384" width="120" height="60" as="geometry" />
        </mxCell>
        <mxCell id="ygGclzWGD8yxMTeT2dYh-3" value="Libro" style="rounded=0;whiteSpace=wrap;html=1;" vertex="1" parent="1">
          <mxGeometry x="310" y="190" width="120" height="60" as="geometry" />
        </mxCell>
        <mxCell id="ygGclzWGD8yxMTeT2dYh-5" value="Pelicula" style="rounded=0;whiteSpace=wrap;html=1;" vertex="1" parent="1">
          <mxGeometry x="310" y="620" width="120" height="60" as="geometry" />
        </mxCell>
        <mxCell id="ygGclzWGD8yxMTeT2dYh-6" value="" style="triangle;whiteSpace=wrap;html=1;rotation=0;direction=west;" vertex="1" parent="1">
          <mxGeometry x="210" y="374" width="60" height="80" as="geometry" />
        </mxCell>
        <mxCell id="ygGclzWGD8yxMTeT2dYh-7" value="" style="endArrow=none;html=1;rounded=0;exitX=1;exitY=0.5;exitDx=0;exitDy=0;entryX=1;entryY=0.5;entryDx=0;entryDy=0;" edge="1" parent="1" source="ygGclzWGD8yxMTeT2dYh-1" target="ygGclzWGD8yxMTeT2dYh-6">
          <mxGeometry width="50" height="50" relative="1" as="geometry">
            <mxPoint x="420" y="450" as="sourcePoint" />
            <mxPoint x="470" y="400" as="targetPoint" />
          </mxGeometry>
        </mxCell>
        <mxCell id="ygGclzWGD8yxMTeT2dYh-8" value="" style="endArrow=none;html=1;rounded=0;entryX=0;entryY=0.5;entryDx=0;entryDy=0;exitX=0;exitY=0.696;exitDx=0;exitDy=0;exitPerimeter=0;" edge="1" parent="1" source="ygGclzWGD8yxMTeT2dYh-6" target="ygGclzWGD8yxMTeT2dYh-3">
          <mxGeometry width="50" height="50" relative="1" as="geometry">
            <mxPoint x="270" y="370" as="sourcePoint" />
            <mxPoint x="470" y="400" as="targetPoint" />
            <Array as="points">
              <mxPoint x="270" y="320" />
              <mxPoint x="270" y="220" />
            </Array>
          </mxGeometry>
        </mxCell>
        <mxCell id="ygGclzWGD8yxMTeT2dYh-9" value="" style="endArrow=none;html=1;rounded=0;exitX=1;exitY=0.5;exitDx=0;exitDy=0;entryX=1;entryY=0.5;entryDx=0;entryDy=0;" edge="1" parent="1">
          <mxGeometry width="50" height="50" relative="1" as="geometry">
            <mxPoint x="270" y="413.83" as="sourcePoint" />
            <mxPoint x="310" y="413.83" as="targetPoint" />
          </mxGeometry>
        </mxCell>
        <mxCell id="ygGclzWGD8yxMTeT2dYh-10" value="" style="endArrow=none;html=1;rounded=0;exitX=0;exitY=0.05;exitDx=0;exitDy=0;entryX=0;entryY=0.5;entryDx=0;entryDy=0;exitPerimeter=0;" edge="1" parent="1" source="ygGclzWGD8yxMTeT2dYh-6" target="ygGclzWGD8yxMTeT2dYh-5">
          <mxGeometry width="50" height="50" relative="1" as="geometry">
            <mxPoint x="270" y="507.83" as="sourcePoint" />
            <mxPoint x="310" y="507.83" as="targetPoint" />
            <Array as="points">
              <mxPoint x="270" y="508" />
              <mxPoint x="270" y="650" />
            </Array>
          </mxGeometry>
        </mxCell>
        <mxCell id="ygGclzWGD8yxMTeT2dYh-11" value="#codigo" style="ellipse;whiteSpace=wrap;html=1;" vertex="1" parent="1">
          <mxGeometry x="40" y="310" width="60" height="50" as="geometry" />
        </mxCell>
        <mxCell id="ygGclzWGD8yxMTeT2dYh-12" value="titulo" style="ellipse;whiteSpace=wrap;html=1;" vertex="1" parent="1">
          <mxGeometry x="130" y="310" width="60" height="50" as="geometry" />
        </mxCell>
        <mxCell id="ygGclzWGD8yxMTeT2dYh-14" value="año" style="ellipse;whiteSpace=wrap;html=1;" vertex="1" parent="1">
          <mxGeometry x="40" y="470" width="60" height="50" as="geometry" />
        </mxCell>
        <mxCell id="ygGclzWGD8yxMTeT2dYh-15" value="" style="endArrow=none;html=1;rounded=0;exitX=0.25;exitY=0;exitDx=0;exitDy=0;entryX=0.5;entryY=1;entryDx=0;entryDy=0;" edge="1" parent="1" source="ygGclzWGD8yxMTeT2dYh-1" target="ygGclzWGD8yxMTeT2dYh-11">
          <mxGeometry width="50" height="50" relative="1" as="geometry">
            <mxPoint x="170" y="390" as="sourcePoint" />
            <mxPoint x="220" y="340" as="targetPoint" />
          </mxGeometry>
        </mxCell>
        <mxCell id="ygGclzWGD8yxMTeT2dYh-16" value="" style="endArrow=none;html=1;rounded=0;exitX=0.846;exitY=-0.006;exitDx=0;exitDy=0;entryX=0.5;entryY=1;entryDx=0;entryDy=0;exitPerimeter=0;" edge="1" parent="1" source="ygGclzWGD8yxMTeT2dYh-1" target="ygGclzWGD8yxMTeT2dYh-12">
          <mxGeometry width="50" height="50" relative="1" as="geometry">
            <mxPoint x="130" y="384" as="sourcePoint" />
            <mxPoint x="120" y="360" as="targetPoint" />
          </mxGeometry>
        </mxCell>
        <mxCell id="ygGclzWGD8yxMTeT2dYh-17" value="" style="endArrow=none;html=1;rounded=0;exitX=0.5;exitY=0;exitDx=0;exitDy=0;entryX=0.25;entryY=1;entryDx=0;entryDy=0;" edge="1" parent="1" source="ygGclzWGD8yxMTeT2dYh-14" target="ygGclzWGD8yxMTeT2dYh-1">
          <mxGeometry width="50" height="50" relative="1" as="geometry">
            <mxPoint x="90" y="394" as="sourcePoint" />
            <mxPoint x="80" y="370" as="targetPoint" />
          </mxGeometry>
        </mxCell>
        <mxCell id="ygGclzWGD8yxMTeT2dYh-19" value="ejemplares" style="ellipse;whiteSpace=wrap;html=1;" vertex="1" parent="1">
          <mxGeometry x="130" y="470" width="60" height="50" as="geometry" />
        </mxCell>
        <mxCell id="ygGclzWGD8yxMTeT2dYh-20" value="" style="endArrow=none;html=1;rounded=0;exitX=0.5;exitY=0;exitDx=0;exitDy=0;entryX=0.75;entryY=1;entryDx=0;entryDy=0;" edge="1" parent="1" source="ygGclzWGD8yxMTeT2dYh-19" target="ygGclzWGD8yxMTeT2dYh-1">
          <mxGeometry width="50" height="50" relative="1" as="geometry">
            <mxPoint x="190.48" y="454.36" as="sourcePoint" />
            <mxPoint x="198.48" y="430.36" as="targetPoint" />
          </mxGeometry>
        </mxCell>
        <mxCell id="ygGclzWGD8yxMTeT2dYh-21" value="autor" style="ellipse;whiteSpace=wrap;html=1;" vertex="1" parent="1">
          <mxGeometry x="290" y="130" width="60" height="50" as="geometry" />
        </mxCell>
        <mxCell id="ygGclzWGD8yxMTeT2dYh-22" value="editorial" style="ellipse;whiteSpace=wrap;html=1;" vertex="1" parent="1">
          <mxGeometry x="290" y="70" width="60" height="50" as="geometry" />
        </mxCell>
        <mxCell id="ygGclzWGD8yxMTeT2dYh-23" value="autor" style="ellipse;whiteSpace=wrap;html=1;" vertex="1" parent="1">
          <mxGeometry x="290" y="10" width="60" height="50" as="geometry" />
        </mxCell>
        <mxCell id="ygGclzWGD8yxMTeT2dYh-24" value="genero" style="ellipse;whiteSpace=wrap;html=1;" vertex="1" parent="1">
          <mxGeometry x="380" y="10" width="60" height="50" as="geometry" />
        </mxCell>
        <mxCell id="ygGclzWGD8yxMTeT2dYh-25" value="compositor" style="ellipse;whiteSpace=wrap;html=1;" vertex="1" parent="1">
          <mxGeometry x="300" y="324" width="70" height="50" as="geometry" />
        </mxCell>
        <mxCell id="ygGclzWGD8yxMTeT2dYh-26" value="estilo" style="ellipse;whiteSpace=wrap;html=1;" vertex="1" parent="1">
          <mxGeometry x="310" y="454" width="60" height="50" as="geometry" />
        </mxCell>
        <mxCell id="ygGclzWGD8yxMTeT2dYh-27" value="genero" style="ellipse;whiteSpace=wrap;html=1;" vertex="1" parent="1">
          <mxGeometry x="280" y="690" width="60" height="50" as="geometry" />
        </mxCell>
        <mxCell id="ygGclzWGD8yxMTeT2dYh-28" value="director" style="ellipse;whiteSpace=wrap;html=1;" vertex="1" parent="1">
          <mxGeometry x="350" y="690" width="60" height="50" as="geometry" />
        </mxCell>
        <mxCell id="ygGclzWGD8yxMTeT2dYh-29" value="sinopsis" style="ellipse;whiteSpace=wrap;html=1;" vertex="1" parent="1">
          <mxGeometry x="420" y="690" width="60" height="50" as="geometry" />
        </mxCell>
        <mxCell id="ygGclzWGD8yxMTeT2dYh-30" value="" style="endArrow=none;html=1;rounded=0;entryX=0.5;entryY=1;entryDx=0;entryDy=0;" edge="1" parent="1" target="ygGclzWGD8yxMTeT2dYh-21">
          <mxGeometry width="50" height="50" relative="1" as="geometry">
            <mxPoint x="320" y="190" as="sourcePoint" />
            <mxPoint x="350" y="160" as="targetPoint" />
          </mxGeometry>
        </mxCell>
        <mxCell id="ygGclzWGD8yxMTeT2dYh-31" value="" style="endArrow=none;html=1;rounded=0;exitX=0.5;exitY=0;exitDx=0;exitDy=0;entryX=1;entryY=1;entryDx=0;entryDy=0;" edge="1" parent="1" source="ygGclzWGD8yxMTeT2dYh-3" target="ygGclzWGD8yxMTeT2dYh-22">
          <mxGeometry width="50" height="50" relative="1" as="geometry">
            <mxPoint x="330" y="200" as="sourcePoint" />
            <mxPoint x="380" y="150" as="targetPoint" />
          </mxGeometry>
        </mxCell>
        <mxCell id="ygGclzWGD8yxMTeT2dYh-32" value="" style="endArrow=none;html=1;rounded=0;entryX=1;entryY=0.5;entryDx=0;entryDy=0;exitX=0.575;exitY=0.011;exitDx=0;exitDy=0;exitPerimeter=0;" edge="1" parent="1" source="ygGclzWGD8yxMTeT2dYh-3" target="ygGclzWGD8yxMTeT2dYh-23">
          <mxGeometry width="50" height="50" relative="1" as="geometry">
            <mxPoint x="380" y="200" as="sourcePoint" />
            <mxPoint x="351" y="123" as="targetPoint" />
          </mxGeometry>
        </mxCell>
        <mxCell id="ygGclzWGD8yxMTeT2dYh-33" value="" style="endArrow=none;html=1;rounded=0;exitX=0.75;exitY=0;exitDx=0;exitDy=0;entryX=0.5;entryY=1;entryDx=0;entryDy=0;" edge="1" parent="1" source="ygGclzWGD8yxMTeT2dYh-3" target="ygGclzWGD8yxMTeT2dYh-24">
          <mxGeometry width="50" height="50" relative="1" as="geometry">
            <mxPoint x="310" y="140" as="sourcePoint" />
            <mxPoint x="360" y="90" as="targetPoint" />
          </mxGeometry>
        </mxCell>
        <mxCell id="ygGclzWGD8yxMTeT2dYh-34" value="" style="endArrow=none;html=1;rounded=0;entryX=0.25;entryY=1;entryDx=0;entryDy=0;exitX=0.5;exitY=0;exitDx=0;exitDy=0;" edge="1" parent="1" source="ygGclzWGD8yxMTeT2dYh-26" target="ygGclzWGD8yxMTeT2dYh-2">
          <mxGeometry width="50" height="50" relative="1" as="geometry">
            <mxPoint x="380" y="500" as="sourcePoint" />
            <mxPoint x="430" y="450" as="targetPoint" />
          </mxGeometry>
        </mxCell>
        <mxCell id="ygGclzWGD8yxMTeT2dYh-35" value="" style="endArrow=none;html=1;rounded=0;entryX=0.25;entryY=1;entryDx=0;entryDy=0;exitX=0.5;exitY=0;exitDx=0;exitDy=0;" edge="1" parent="1">
          <mxGeometry width="50" height="50" relative="1" as="geometry">
            <mxPoint x="340" y="384" as="sourcePoint" />
            <mxPoint x="340" y="374" as="targetPoint" />
          </mxGeometry>
        </mxCell>
        <mxCell id="ygGclzWGD8yxMTeT2dYh-36" value="" style="endArrow=none;html=1;rounded=0;entryX=0.5;entryY=0;entryDx=0;entryDy=0;exitX=0;exitY=1;exitDx=0;exitDy=0;" edge="1" parent="1" source="ygGclzWGD8yxMTeT2dYh-5" target="ygGclzWGD8yxMTeT2dYh-27">
          <mxGeometry width="50" height="50" relative="1" as="geometry">
            <mxPoint x="380" y="560" as="sourcePoint" />
            <mxPoint x="430" y="510" as="targetPoint" />
          </mxGeometry>
        </mxCell>
        <mxCell id="ygGclzWGD8yxMTeT2dYh-37" value="" style="endArrow=none;html=1;rounded=0;entryX=0.5;entryY=0;entryDx=0;entryDy=0;exitX=0;exitY=1;exitDx=0;exitDy=0;" edge="1" parent="1">
          <mxGeometry width="50" height="50" relative="1" as="geometry">
            <mxPoint x="379.86" y="680" as="sourcePoint" />
            <mxPoint x="379.86" y="690" as="targetPoint" />
          </mxGeometry>
        </mxCell>
        <mxCell id="ygGclzWGD8yxMTeT2dYh-38" value="" style="endArrow=none;html=1;rounded=0;entryX=0.5;entryY=0;entryDx=0;entryDy=0;exitX=0;exitY=1;exitDx=0;exitDy=0;" edge="1" parent="1" target="ygGclzWGD8yxMTeT2dYh-29">
          <mxGeometry width="50" height="50" relative="1" as="geometry">
            <mxPoint x="429.72" y="680" as="sourcePoint" />
            <mxPoint x="429.72" y="690" as="targetPoint" />
          </mxGeometry>
        </mxCell>
        <mxCell id="ygGclzWGD8yxMTeT2dYh-39" value="&lt;u&gt;cd&lt;/u&gt; &lt;u&gt;-&lt;/u&gt; &lt;u&gt;ej&lt;/u&gt;" style="ellipse;whiteSpace=wrap;html=1;" vertex="1" parent="1">
          <mxGeometry x="380" y="324" width="60" height="50" as="geometry" />
        </mxCell>
        <mxCell id="ygGclzWGD8yxMTeT2dYh-40" value="&lt;u&gt;lib&lt;/u&gt; &lt;u&gt;ro&lt;/u&gt; &lt;u&gt;-&lt;/u&gt; &lt;u&gt;ej&lt;/u&gt;" style="ellipse;whiteSpace=wrap;html=1;" vertex="1" parent="1">
          <mxGeometry x="310" y="260" width="60" height="50" as="geometry" />
        </mxCell>
        <mxCell id="ygGclzWGD8yxMTeT2dYh-41" value="" style="endArrow=none;html=1;rounded=0;entryX=0.25;entryY=1;entryDx=0;entryDy=0;exitX=0.5;exitY=0;exitDx=0;exitDy=0;" edge="1" parent="1">
          <mxGeometry width="50" height="50" relative="1" as="geometry">
            <mxPoint x="410" y="384" as="sourcePoint" />
            <mxPoint x="410" y="374" as="targetPoint" />
          </mxGeometry>
        </mxCell>
        <mxCell id="ygGclzWGD8yxMTeT2dYh-42" value="" style="endArrow=none;html=1;rounded=0;entryX=0.25;entryY=1;entryDx=0;entryDy=0;exitX=0.5;exitY=0;exitDx=0;exitDy=0;" edge="1" parent="1">
          <mxGeometry width="50" height="50" relative="1" as="geometry">
            <mxPoint x="340" y="260" as="sourcePoint" />
            <mxPoint x="340" y="250" as="targetPoint" />
          </mxGeometry>
        </mxCell>
        <mxCell id="ygGclzWGD8yxMTeT2dYh-43" value="&lt;u&gt;pe&lt;/u&gt; &lt;u&gt;li&lt;/u&gt;&amp;nbsp;&lt;u&gt;-&lt;/u&gt; &lt;u&gt;ej&lt;/u&gt;" style="ellipse;whiteSpace=wrap;html=1;" vertex="1" parent="1">
          <mxGeometry x="300" y="560" width="60" height="50" as="geometry" />
        </mxCell>
        <mxCell id="ygGclzWGD8yxMTeT2dYh-44" value="" style="endArrow=none;html=1;rounded=0;entryX=0.5;entryY=0;entryDx=0;entryDy=0;exitX=0;exitY=1;exitDx=0;exitDy=0;" edge="1" parent="1">
          <mxGeometry width="50" height="50" relative="1" as="geometry">
            <mxPoint x="329.76" y="610" as="sourcePoint" />
            <mxPoint x="329.76" y="620" as="targetPoint" />
          </mxGeometry>
        </mxCell>
      </root>
    </mxGraphModel>
  </diagram>
</mxfile>
